#!OML:ASF H:\LiuWeirdWalks\Patient Classification 1\Patient 1\Session 1\male.ASF
:FULLY-SPECIFIED
:DEGREES
416
root 0.511305 18.2243 -10.757 2.98764 -3.68458 -6.81843
lowerback 15.8045 0.273038 3.9611
upperback 1.78512 1.33376 3.93279
thorax -6.97165 0.588086 1.66616
lowerneck -15.8194 1.74399 4.50583
upperneck 11.1036 2.20683 -5.81798
head 6.06928 0.796358 -2.37602
rclavicle -1.11319e-014 2.38542e-015
rhumerus -43.7322 6.84542 -80.7316
rradius 44.8471
rwrist -4.10951
rhand -17.1222 -5.13576
rfingers 7.12502
rthumb 9.11744 -34.9187
lclavicle -1.11319e-014 2.38542e-015
lhumerus -51.9295 7.84673 57.1252
lradius 41.3434
lwrist 3.87857
lhand -23.5971 -14.2423
lfingers 7.12502
lthumb 2.86647 15.7182
rfemur -17.354 -6.87241 26.3194
rtibia 57.6476
rfoot 7.94372 -0.734726
rtoes -18.812
lfemur -29.3869 4.03172 -19.4021
ltibia 31.9611
lfoot -17.8219 9.53429
ltoes -21.5791
417
root 0.499346 18.0887 -10.5539 2.33462 -4.24281 -7.03562
lowerback 15.8768 0.27983 4.1224
upperback 2.01348 1.36227 3.96104
thorax -6.76292 0.600758 1.59728
lowerneck -15.4792 1.85933 4.58572
upperneck 10.9802 2.37071 -5.94098
head 5.98496 0.875481 -2.4122
rclavicle -1.68967e-015 -2.70347e-014
rhumerus -43.5119 6.91684 -81.0532
rradius 44.6141
rwrist -3.9491
rhand -17.142 -5.1749
rfingers 7.12502
rthumb 9.0983 -34.9587
lclavicle -1.68967e-015 -2.70347e-014
lhumerus -52.8724 8.53184 57.0065
lradius 40.7416
lwrist 4.19839
lhand -23.5921 -13.9229
lfingers 7.12502
lthumb 2.87131 16.0375
rfemur -17.015 -6.70054 26.1639
rtibia 59.3579
rfoot 8.50962 0.119098
rtoes -18.9766
lfemur -29.1497 4.25616 -19.4556
ltibia 32.1099
lfoot -17.7552 10.3903
ltoes -21.5926
418
root 0.485376 17.9409 -10.3486 1.66606 -4.71292 -7.26936
lowerback 15.9223 0.256851 4.27601
upperback 2.21704 1.35096 4.00718
thorax -6.56682 0.594801 1.56079
lowerneck -15.0822 1.96154 4.6575
upperneck 10.9142 2.51913 -6.03477
head 5.90831 0.949936 -2.44005
rclavicle 2.32578e-014 1.94809e-014
rhumerus -43.3843 7.03793 -81.3832
rradius 44.4321
rwrist -3.7878
rhand -17.1488 -5.19294
rfingers 7.12502
rthumb 9.0918 -34.977
lclavicle 2.32578e-014 1.94809e-014
lhumerus -53.7861 9.18335 56.9145
lradius 40.1343
lwrist 4.53526
lhand -23.6179 -13.5977
lfingers 7.12502
lthumb 2.8464 16.3631
rfemur -16.643 -6.5797 26.0173
rtibia 61.0453
rfoot 9.20364 0.986672
rtoes -19.2933
lfemur -28.9254 4.29372 -19.4209
ltibia 32.7443
lfoot -17.5014 11.0089
ltoes -21.7526
419
root 0.470327 17.7864 -10.1414 0.987849 -5.09844 -7.49359
lowerback 15.9506 0.207369 4.40492
upperback 2.38709 1.30152 4.05795
thorax -6.39827 0.570859 1.55158
lowerneck -14.6742 2.061 4.717
upperneck 10.9858 2.66574 -6.07662
head 5.87237 1.02653 -2.45064
rclavicle -2.48481e-015 -4.81059e-014
rhumerus -43.3364 7.16845 -81.713
rradius 44.2693
rwrist -3.61921
rhand -17.1379 -5.20972
rfingers 7.12502
rthumb 9.10228 -34.9933
lclavicle -2.48481e-015 -4.81059e-014
lhumerus -54.6522 9.80406 56.8372
lradius 39.4858
lwrist 4.86778
lhand -23.6914 -13.2835
lfingers 7.12502
lthumb 2.7754 16.6782
rfemur -16.2181 -6.53418 25.8388
rtibia 62.694
rfoot 9.99851 1.87812
rtoes -19.4614
lfemur -28.7489 4.20029 -19.3524
ltibia 33.9337
lfoot -17.0939 11.3925
ltoes -22.1409
420
root 0.45342 17.6296 -9.93458 0.315775 -5.35334 -7.69374
lowerback 15.9762 0.122145 4.49343
upperback 2.51574 1.20044 4.10634
thorax -6.27388 0.522146 1.57375
lowerneck -14.3243 2.15566 4.77267
upperneck 11.2199 2.8034 -6.05866
head 5.89581 1.10128 -2.4433
rclavicle -5.66536e-015 -1.90833e-014
rhumerus -43.3525 7.25775 -82.0272
rradius 44.106
rwrist -3.42026
rhand -17.094 -5.20606
rfingers 7.12502
rthumb 9.14464 -34.9878
lclavicle -5.66536e-015 -1.90833e-014
lhumerus -55.4338 10.3993 56.7637
lradius 38.7673
lwrist 5.15634
lhand -23.7948 -13.0116
lfingers 7.12502
lthumb 2.67555 16.9514
rfemur -15.7568 -6.61364 25.6184
rtibia 64.3225
rfoot 10.8459 2.77842
rtoes -19.2908
lfemur -28.7083 3.9393 -19.2689
ltibia 35.6991
lfoot -16.4572 11.5723
ltoes -22.3353
421
root 0.43375 17.4739 -9.72999 -0.344031 -5.44793 -7.71742
lowerback 15.9942 0.0147257 4.38624
upperback 2.60545 1.0361 4.10965
thorax -6.19015 0.445855 1.67158
lowerneck -14.0608 2.24269 4.79859
upperneck 11.5883 2.92587 -5.94742
head 5.97331 1.17231 -2.40315
rclavicle -9.93923e-015 -2.38542e-014
rhumerus -43.4012 7.23088 -82.2997
rradius 43.9136
rwrist -3.16794
rhand -17.0443 -5.21227
rfingers 7.12502
rthumb 9.19264 -34.9919
lclavicle -9.93923e-015 -2.38542e-014
lhumerus -56.064 10.9948 56.6837
lradius 37.9295
lwrist 5.36094
lhand -23.91 -12.7938
lfingers 7.12502
lthumb 2.56431 17.1705
rfemur -15.3059 -6.86165 25.1852
rtibia 65.9667
rfoot 11.7177 3.73128
rtoes -18.6868
lfemur -28.8365 3.50167 -19.3487
ltibia 37.9506
lfoot -15.6294 11.586
ltoes -21.8266
422
root 0.409619 17.3207 -9.5315 -0.956547 -5.31511 -7.44262
lowerback 15.9996 -0.110958 3.95631
upperback 2.64159 0.790771 4.0341
thorax -6.15943 0.335312 1.88475
lowerneck -13.8713 2.31718 4.82027
upperneck 12.032 3.02411 -5.78305
head 6.08472 1.23403 -2.34759
rclavicle -3.57812e-015 9.14409e-015
rhumerus -43.4619 7.01538 -82.5063
rradius 43.6645
rwrist -2.84756
rhand -17.0028 -5.22697
rfingers 7.12502
rthumb 9.23267 -35.0048
lclavicle -3.57812e-015 9.14409e-015
lhumerus -56.482 11.622 56.5673
lradius 36.9138
lwrist 5.40342
lhand -23.9948 -12.6459
lfingers 7.12502
lthumb 2.48237 17.3194
rfemur -14.9566 -7.32642 24.4143
rtibia 67.6723
rfoot 12.5873 4.72801
rtoes -17.8602
lfemur -29.174 2.83483 -19.7324
ltibia 40.5294
lfoot -14.6297 11.4953
ltoes -19.851
423
root 0.380929 17.1721 -9.34002 -1.51546 -4.93436 -6.83325
lowerback 15.997 -0.246301 3.17688
upperback 2.6335 0.470015 3.86923
thorax -6.16974 0.194022 2.21696
lowerneck -13.6956 2.36603 4.84105
upperneck 12.4126 3.08217 -5.60846
head 6.17612 1.2775 -2.29201
rclavicle -1.83876e-015 6.75868e-015
rhumerus -43.5291 6.5571 -82.6227
rradius 43.3651
rwrist -2.4645
rhand -17.0006 -5.2991
rfingers 7.12502
rthumb 9.23478 -35.0769
lclavicle -1.83876e-015 6.75868e-015
lhumerus -56.6161 12.3217 56.399
lradius 35.6444
lwrist 5.20386
lhand -24.0359 -12.5157
lfingers 7.12502
lthumb 2.44273 17.45
rfemur -14.7327 -8.01257 23.2631
rtibia 69.4489
rfoot 13.4199 5.79294
rtoes -16.9033
lfemur -29.6601 1.95878 -20.4783
ltibia 43.2365
lfoot -13.6213 11.4051
ltoes -16.4676
424
root 0.349867 17.0301 -9.15405 -2.0132 -4.3653 -5.98814
lowerback 15.9755 -0.370441 2.18658
upperback 2.59989 0.123548 3.62995
thorax -6.18951 0.0440865 2.59584
lowerneck -13.5636 2.36705 4.85767
upperneck 12.7201 3.07334 -5.45114
head 6.24841 1.28702 -2.2471
rclavicle -9.93923e-016 -3.53837e-014
rhumerus -43.609 5.79203 -82.6235
rradius 42.9964
rwrist -2.03508
rhand -17.0912 -5.39245
rfingers 7.12502
rthumb 9.1473 -35.1741
lclavicle -9.93923e-016 -3.53837e-014
lhumerus -56.4294 13.0958 56.1801
lradius 34.1008
lwrist 4.73451
lhand -24.0135 -12.4152
lfingers 7.12502
lthumb 2.46436 17.5503
rfemur -14.6113 -8.85191 21.835
rtibia 71.2586
rfoot 14.2333 6.89651
rtoes -15.9999
lfemur -30.1938 0.952607 -21.4925
ltibia 45.8874
lfoot -12.8363 11.4666
ltoes -12.198
